<?xml version="1.0" encoding="utf-8"?>
<!-- Generator: Adobe Illustrator 21.1.0, SVG Export Plug-In . SVG Version: 6.00 Build 0)  -->
<svg version="1.1" id="Forma_1_1_" xmlns="http://www.w3.org/2000/svg" xmlns:xlink="http://www.w3.org/1999/xlink" x="0px" y="0px"
	 viewBox="0 0 512 419" style="enable-background:new 0 0 512 419;" xml:space="preserve">
<style type="text/css">
	.st0{fill-rule:evenodd;clip-rule:evenodd;}
</style>
<g id="Forma_1">
	<g>
		<path class="st0" d="M121.9,296.8l-38.5,38.4L63,314.7c-3.9-3.9-10.2-3.9-14.1,0s-3.9,10.2,0,14.1l27.6,27.5c2,2,4.5,2.9,7.1,2.9
			c2.6,0,5.1-1,7.1-2.9l45.5-45.5c3.9-3.9,3.9-10.2,0-14.1C132.1,292.9,125.8,292.9,121.9,296.8z M371.1,130.7
			c0.3,0.6,0.6,1.2,0.9,1.7c0.4,0.5,0.8,1.1,1.2,1.5c0.5,0.5,1,0.9,1.5,1.2c0.5,0.4,1.1,0.7,1.7,0.9c0.6,0.2,1.2,0.4,1.9,0.6
			s1.3,0.2,2,0.2c0.6,0,1.3-0.1,2-0.2c0.6-0.1,1.3-0.3,1.9-0.6c0.6-0.2,1.2-0.6,1.7-0.9c0.5-0.4,1.1-0.8,1.5-1.2
			c0.5-0.5,0.9-1,1.2-1.5c0.4-0.5,0.7-1.1,0.9-1.7s0.5-1.2,0.6-1.9c0.1-0.6,0.2-1.3,0.2-2c0-0.6-0.1-1.3-0.2-1.9
			c-0.1-0.6-0.3-1.3-0.6-1.9c-0.3-0.6-0.5-1.2-0.9-1.7c-0.4-0.5-0.8-1.1-1.2-1.5c-0.5-0.5-1-0.9-1.5-1.2c-0.5-0.4-1.1-0.7-1.7-0.9
			c-0.6-0.2-1.2-0.4-1.9-0.6c-1.3-0.3-2.6-0.3-3.9,0c-0.6,0.1-1.3,0.3-1.9,0.6c-0.6,0.2-1.2,0.6-1.7,0.9c-0.6,0.4-1.1,0.8-1.5,1.2
			c-0.5,0.5-0.9,1-1.2,1.5c-0.4,0.5-0.7,1.1-0.9,1.7c-0.3,0.6-0.4,1.2-0.6,1.9c-0.1,0.6-0.2,1.3-0.2,1.9c0,0.7,0.1,1.3,0.2,2
			C370.7,129.5,370.8,130.1,371.1,130.7z M502,0H118.6c-5.5,0-10,4.5-10,10v35H68.2c-5.5,0-10,4.5-10,10v185.8
			c-34,13.6-58.2,47-58.2,85.8C0,377.5,41.5,419,92.4,419c47.6,0,86.9-36.1,91.9-82.4h267.2c5.5,0,10-4.5,10-10v-35H502
			c5.5,0,10-4.5,10-10V10C512,4.5,507.5,0,502,0z M92.4,399C52.5,399,20,366.5,20,326.6c0-39.9,32.5-72.4,72.4-72.4
			c39.9,0,72.4,32.5,72.4,72.4C164.9,366.5,132.4,399,92.4,399z M118.4,237.9v-19.6h95v48.5h-50.5
			C151.4,253.3,136,243.1,118.4,237.9z M441.6,316.6H184.3c-1.1-10.5-4.1-20.5-8.4-29.7h47.5c5.5,0,10-4.5,10-10v-68.5
			c0-5.5-4.5-10-10-10h-115c-5.5,0-10,4.5-10,10v26c-2-0.1-4-0.2-6-0.2c-4.9,0-9.6,0.4-14.3,1.1v-64.9h363.4V316.6z M441.6,150.5
			H78.2v-13.6h261.5c5.5,0,10-4.5,10-10c0-5.5-4.5-10-10-10H78.2v-13.6h363.4V150.5z M441.6,83.3H78.2V65h363.4V83.3z M492,271.6
			h-30.4V55c0-5.5-4.5-10-10-10h-323V20H492V271.6z M312,298c10.2,0,20-2.7,28.5-7.9c8.3,5,18.1,7.9,28.5,7.9
			c30.5,0,55.4-24.8,55.4-55.3s-24.8-55.3-55.4-55.3c-10.4,0-20.2,2.9-28.5,7.9c-8.6-5.2-18.3-7.9-28.5-7.9
			c-30.5,0-55.4,24.8-55.4,55.3C256.6,273.1,281.5,298,312,298z M369,207.3c19.5,0,35.4,15.9,35.4,35.4S388.5,278,369,278
			c-19.5,0-35.4-15.9-35.4-35.4C333.7,223.1,349.5,207.3,369,207.3z M312,207.3c4.4,0,8.6,0.8,12.6,2.3c-6.9,9.2-11,20.7-11,33.1
			c0,12.4,4.1,23.8,11,33.1c-4,1.5-8.2,2.3-12.6,2.3c-19.5,0-35.4-15.9-35.4-35.4C276.6,223.1,292.5,207.3,312,207.3z"/>
	</g>
</g>
</svg>
