<?xml version="1.0" encoding="utf-8"?>
<!-- Generator: Adobe Illustrator 21.1.0, SVG Export Plug-In . SVG Version: 6.00 Build 0)  -->
<svg version="1.1" id="Forma_1_1_" xmlns="http://www.w3.org/2000/svg" xmlns:xlink="http://www.w3.org/1999/xlink" x="0px" y="0px"
	 viewBox="0 0 450 512" style="enable-background:new 0 0 450 512;" xml:space="preserve">
<style type="text/css">
	.st0{fill-rule:evenodd;clip-rule:evenodd;}
</style>
<g id="Forma_1">
	<g>
		<path class="st0" d="M447.1,437.2l-18.4-18.4c4.9-15.7,0.9-33.3-11.1-45.3c-67.6-67.6-67.8-67.7-68.1-68
			c-11.1-9.9-28.1-9.9-38.7,0.2c-3.6,3.4-6.1,7.4-7.5,11.8c-2-0.4-4-0.7-6.1-0.7c-3.3,0-6.5,0.6-9.5,1.6V26.9
			c0-14.8-12.1-26.9-26.9-26.9H26.9C12.1,0,0,12.1,0,26.9v431.2C0,473,12.1,485,26.9,485h207.1c1.7,6.8,5.2,13.1,10.3,18.2
			c4.8,4.8,11.2,7.5,18,7.5h0c6.8,0,13.2-2.6,18-7.5l12.2-12.2c3.9-3.9,5.4-3.9,11.3-3.9c1.6,0,3.4,0,5.4-0.2l26.7,3.5
			c6.5,0.8,13,0.4,19.2-1.2l19.9,19.9c2,2,4.5,2.9,7.1,2.9s5.1-1,7.1-2.9l57.8-57.8C451,447.4,451,441.1,447.1,437.2z M20,26.9
			c0-3.8,3.1-6.9,6.9-6.9h233.8c3.8,0,6.9,3.1,6.9,6.9v47.7H20V26.9z M20,94.6h247.6V343c-6,0.8-11.9,3.5-16.5,8
			c-2.1,2.1-3.8,4.4-5.1,6.9c-7.6-7.6-13.8-13.8-18.7-18.7v-28.1c0-5.5-4.5-10-10-10H70.3c-5.5,0-10,4.5-10,10v62.4
			c0,5.5,4.5,10,10,10h121.4l13.6,13.5H20V94.6z M166.4,358.4c0.2,0.2,0.3,0.3,0.5,0.5c0,0,0.1,0.1,0.1,0.1l4.6,4.6H80.3v-42.4h85.4
			C156.7,331.8,156.8,347.8,166.4,358.4z M244.4,448.2c-4.8,4.8-8.2,10.6-9.9,16.9H26.9c-3.8,0-6.9-3.1-6.9-6.9v-41h205.2l25.1,25
			L244.4,448.2z M355.8,467.9c-5.4,2.5-11.3,3.4-17.2,2.7l-27.7-3.6c-0.7-0.1-5.5,0.1-7.2,0.1c-7.3,0.1-15.6,0.2-25.2,9.8
			l-12.2,12.2c-1,1-2.4,1.6-3.9,1.6h0c-1.5,0-2.8-0.6-3.9-1.6c-3.6-3.6-5.6-8.3-5.6-13.4c0-0.1,0-0.3,0-0.4v0
			c0.1-4.9,2.1-9.5,5.6-13l13.1-13.1c4.1-4.1,4.4-9.7,0-14.1l-90.3-90c0,0,0,0,0,0c-3.1-3.3-2.9-8.6,0.4-11.7
			c3.1-2.9,8.1-2.9,11.4,0c2.8,2.8,68.5,68.4,68.5,68.4c2,2,4.5,2.9,7.1,2.9s5.1-1,7.1-2.9c3.9-3.9,3.9-10.2,0-14.1l-10.2-10.2
			c-0.2-0.3-0.5-0.6-0.7-0.9c-2.8-3.3-2.6-8.2,0.4-11.3c3-3,7.9-3.2,11.1-0.6l11.2,11.2c2,2,4.5,2.9,7.1,2.9c2.6,0,5.1-1,7.1-2.9
			c3.9-3.9,3.9-10.2,0-14.1c0,0-10.8-10.8-10.9-11.1c-2.8-3.3-2.6-8.2,0.4-11.3c1.6-1.6,3.7-2.4,5.9-2.4c1.9,0,3.8,0.7,5.2,1.9
			l11.2,11.2c2,2,4.5,2.9,7.1,2.9c2.6,0,5.1-1,7.1-2.9c3.9-3.9,3.9-10.2,0-14.1c0,0-3.7-3.8-3.9-4c-2.9-3.4-2.6-8.4,0.6-11.5
			c3.1-2.9,8.1-2.9,11.4,0c3.1,3.1,45.1,45.1,67.5,67.4c7.8,7.8,9.5,19.7,4.5,29.3l-50.4,50.4C356.9,467.4,356.3,467.6,355.8,467.9z
			 M382.2,487.9l-8.5-8.5l43.6-43.6l8.5,8.5L382.2,487.9z M166,431.1h-44.3c-5.5,0-10,4.5-10,10c0,5.5,4.5,10,10,10H166
			c5.5,0,10-4.5,10-10C176,435.6,171.5,431.1,166,431.1z M229.5,43.5c-0.3-0.6-0.6-1.2-0.9-1.7c-0.4-0.6-0.8-1.1-1.2-1.5
			c-0.5-0.5-1-0.9-1.5-1.3c-0.5-0.4-1.1-0.7-1.7-0.9c-0.6-0.3-1.2-0.4-1.9-0.6c-3.3-0.7-6.7,0.4-9,2.7c-0.5,0.5-0.9,1-1.2,1.5
			c-0.4,0.5-0.7,1.1-0.9,1.7c-0.3,0.6-0.4,1.2-0.6,1.9c-0.1,0.6-0.2,1.3-0.2,2c0,0.6,0.1,1.3,0.2,2c0.1,0.6,0.3,1.3,0.6,1.9
			c0.3,0.6,0.6,1.2,0.9,1.7c0.4,0.5,0.8,1.1,1.2,1.5c0.5,0.5,1,0.9,1.5,1.2c0.5,0.4,1.1,0.7,1.7,0.9c0.6,0.3,1.2,0.4,1.9,0.6
			s1.3,0.2,2,0.2s1.3-0.1,2-0.2s1.3-0.3,1.9-0.6c0.6-0.3,1.2-0.6,1.7-0.9c0.6-0.4,1.1-0.8,1.5-1.2c1.9-1.9,2.9-4.4,2.9-7.1
			c0-0.7-0.1-1.3-0.2-2C230,44.7,229.8,44.1,229.5,43.5z M183.1,37.3H67.3c-5.5,0-10,4.5-10,10s4.5,10,10,10h115.8
			c5.5,0,10-4.5,10-10C193.1,41.8,188.7,37.3,183.1,37.3z M142.2,287c0.6,0,1.1,0,1.7,0c23.6,0,45.7-9.1,62.4-25.9
			c17.1-17.1,26.3-39.9,25.9-64.1c-0.4-22.8-9.6-44.4-25.9-60.7c-16.3-16.3-37.9-25.5-60.7-25.9c-24.3-0.5-47,8.7-64.1,25.8
			c-17.1,17.1-26.3,39.9-25.9,64.1c0.4,22.8,9.6,44.4,25.9,60.7C97.7,277.4,119.3,286.6,142.2,287z M95.5,150.5
			c12.9-12.9,30-20,48.3-20c0.4,0,0.9,0,1.3,0c36.3,0.7,66.3,30.7,67,67c0.3,18.7-6.8,36.3-20,49.6c-13.2,13.2-30.9,20.3-49.6,20
			c-36.3-0.7-66.3-30.7-67-67C75.2,181.3,82.3,163.7,95.5,150.5z M124.2,215.3c-4.2,0-7.5,5.7-7.5,9.6c0,7.3,10.8,14.4,24,14.9v2.9
			c0,1.6,1.8,3.1,4.2,3.1c2.1,0,4.2-1.5,4.2-3.1v-3.3c12.9-2.2,21.7-10.8,21.7-24.9c0-15.4-11.7-20.8-21.7-24.7v-16.7
			c7.1,0.6,9.2,4.2,12.9,4.2c4.8,0,6.8-6.3,6.8-9.4c0-7.9-12.9-9.7-19.7-10V155c0-1.6-2.1-3.1-4.2-3.1c-2.4,0-4.2,1.5-4.2,3.1v3.2
			c-11.7,1.7-22,8.7-22,23.2c0,14.6,11.9,19.6,22,23.6v18.5C132.6,222,128.8,215.3,124.2,215.3z M148,208c4,1.9,6.7,4.3,6.7,8.1
			c0,4.1-3,6.3-6.7,7.2V208z M134.8,179.7c0-2.7,2.1-5.4,7-6.4v13.6C137.6,185.1,134.8,183,134.8,179.7z"/>
	</g>
</g>
</svg>
