<?xml version="1.0" encoding="utf-8"?>
<!-- Generator: Adobe Illustrator 21.1.0, SVG Export Plug-In . SVG Version: 6.00 Build 0)  -->
<svg version="1.1" xmlns="http://www.w3.org/2000/svg" xmlns:xlink="http://www.w3.org/1999/xlink" x="0px" y="0px"
	 viewBox="0 0 920 920" style="enable-background:new 0 0 920 920;" xml:space="preserve">
<style type="text/css">
	.st0{fill:#8E8E8E;}
</style>
<g id="Фон_xA0_Изображение_1_">
</g>
<g id="Слой_1_xA0_Изображение_1_">
	<g>
		<path class="st0" d="M904,463c-0.8,3.8-1.4,7.8-2.5,11.5c-3.4,11-14.7,19.7-26.3,20.1c-15.8,0.5-31.6,0.8-47.4,1
			c-24,0.4-47.9,0.8-71.9,0.8c-10.4,0-21-0.4-31.3-1.9c-16.8-2.5-28.9-20.8-26.5-37.5c1.6-11.3,7.4-19.3,16.3-25.6
			c6.7-4.8,14.6-4.8,22-4.9c37.7-0.3,75.3-0.4,113,0c11.4,0.1,23.1,0.6,34.1,3.1c9.5,2.2,18.8,13,19.1,23.1c0.1,2.1,0.9,4.1,1.4,6.2
			C904,460.3,904,461.7,904,463z"/>
		<path class="st0" d="M18,460c0.5-1.2,1.3-2.4,1.3-3.6c0-14.4,15.8-29.6,30.1-29.1c9.1,0.3,18.2-0.7,27.4-0.8
			c30.3-0.1,60.6-0.2,90.9,0.1c10.8,0.1,21.6,0.9,32.3,1.9c11.4,1.1,23.4,14.8,23.6,26.2c0.1,4.8,0.4,9.6,0,14.4
			c-1.2,12.8-14.7,25.2-27.7,25.6c-16.1,0.4-32.2,0.8-48.4,1c-23.8,0.4-47.6,0.8-71.3,0.8c-10.4,0-20.9-0.6-31.3-1.9
			C32,492.9,21,480.7,19.3,467.6c-0.2-1.2-0.9-2.4-1.3-3.6C18,462.7,18,461.3,18,460z"/>
		<path class="st0" d="M256.5,459.3c1.2-13,1.2-28,4.3-42.3c4.4-20.3,12.1-39.7,22.9-57.6c20.7-34.2,48.3-61.2,83.4-80.3
			c19.3-10.5,40.1-17.3,62-20.7c19.7-3.1,39.2-1.7,58.9-0.2c15.3,1.2,29.6,5.7,43.9,10.6c37.6,12.9,66.7,37.2,91.4,67.5
			c20,24.6,32.2,52.9,39.8,83.4c2,7.9,2.3,16.4,2.4,24.7c0.1,16.1,0.5,32.4-1.2,48.3c-1.4,12.2-5.5,24.2-9.2,36
			c-6.5,20.9-17.6,39.5-30.9,56.6c-18.4,23.5-40.8,42.8-67.1,57.2c-17.6,9.6-36.4,16.1-55.9,20.2c-8.5,1.8-17.4,2.4-26.1,2.6
			c-18.4,0.5-37,1-55.1-3c-11.1-2.5-22-6.4-32.7-10.3c-27.9-10.2-51.5-27-71.8-48.4c-8.9-9.4-16.9-19.6-24.7-29.9
			c-15.9-21-24.6-45.5-30.6-70.6C256.9,489.6,257.6,475.1,256.5,459.3z M595.5,462.1c0.3-71.8-58.6-135.2-132.8-135.3
			c-75.2-0.1-135.6,60-135.8,134.6c-0.2,75.1,62.9,132.7,131.7,134.2C533.5,597.3,596.6,533.2,595.5,462.1z"/>
		<path class="st0" d="M271,619.1c10.1-0.4,20.2,4.7,27.3,14.5c5.3,7.4,5.9,16.4,5,25.4c-0.8,7.2-4,13-9.3,18.2
			c-25.1,25-49.8,50.6-75,75.5c-9.4,9.3-19.8,17.7-29.9,26.3c-11.9,10.1-23.5,7.4-35.2-0.5c-9-6.1-15.4-14.8-16.2-26.2
			c-0.5-6.4-0.7-13.1,4.2-18.3c16.8-18,33.5-36.1,50.7-53.7c17.7-18.1,36.1-35.5,54.2-53.2C252.9,621.2,260.3,618.9,271,619.1z"/>
		<path class="st0" d="M654.8,618.6c8.8,0.1,15.9,3.2,22.1,9.3c24.8,24.6,49.9,49,74.6,73.7c9.6,9.7,18.3,20.2,27.4,30.3
			c6.8,7.6,7.6,16.4,5.2,25.9c-4.2,16.3-23.9,33.4-46,24.4c-6-2.4-11.1-7.7-16-12.4c-16.5-15.7-32.9-31.6-49-47.7
			c-15.9-15.9-31.4-32.2-47-48.2c-6.5-6.6-6.8-14.9-6.5-23.3c0.5-13.4,7.1-23.1,18.9-28.7C643.3,619.7,649.3,619.7,654.8,618.6z"/>
		<path class="st0" d="M265.8,304.8c-9.2,0.3-14.4-5-21-11.7c-27-27.2-54.5-53.8-81.4-81c-7.9-8-14.7-17.1-21.9-25.8
			c-6.1-7.4-5.4-16.3-2.2-24c5.4-13.3,15.7-21.9,30.1-25.2c5.7-1.3,10.7,0.4,15,3.3c7.3,4.9,14.6,10,20.9,16.1
			c25.1,24.3,49.9,48.9,74.7,73.6c6.7,6.7,13.3,13.6,19,21.1c4.8,6.3,5.1,14.3,4.4,22c-1,10.4-5.1,19.7-14.6,24.6
			C282.5,301.2,266,305.4,265.8,304.8z"/>
		<path class="st0" d="M619.4,269.6c0-9.7,2.6-18,9.9-25.1c22.5-22.3,44.4-45.1,66.8-67.4c11.2-11.1,23.2-21.5,34.9-32.1
			c10.2-9.2,21.7-10,33.6-3.6c12.9,7,21.3,17.6,20.6,32.7c-0.3,5.8-3.5,12.3-7.4,16.8c-13.9,15.9-28.3,31.4-43.2,46.4
			c-19.6,19.9-39.7,39.4-59.8,58.9c-8.5,8.2-19.2,7.8-30,6.2C629.2,300,619.4,285.9,619.4,269.6z"/>
		<path class="st0" d="M495.6,120.9c0,19.3,0.1,38.6,0,58c0,6.6-0.4,13.3-1,19.9c-1.1,11.9-15.4,24.9-27.5,24.7
			c-6.7-0.1-14.1,0.2-20-2.3c-13.1-5.5-19.5-16.3-19.5-30.8c-0.3-45.3-0.5-90.6-1-135.8c-0.2-14,6.3-24.2,17.2-31.7
			c16.6-11.5,45.8-0.2,50.4,19.3c1.1,4.8,1.4,9.9,1.5,14.8C495.6,78.3,495.6,99.6,495.6,120.9z"/>
		<path class="st0" d="M495.6,801c0,20.2,0.1,40.3,0,60.5c0,5.6-0.5,11.3-1,16.9c-1,10.6-15.4,25.5-27.3,24.3
			c-6.7-0.7-14.1,0.4-20.1-2c-13.5-5.2-19.5-16.4-19.6-30.7c-0.4-46.1-0.5-92.3-1.1-138.4c-0.2-15.2,16.5-35.4,35.6-33.5
			c12.1,1.2,21.1,5.4,28.3,15c5.3,7,4.9,15.1,5.1,22.9C495.9,757.7,495.6,779.3,495.6,801z"/>
		<path class="st0" d="M904,463c-0.8,3.8-1.4,7.8-2.5,11.5c-3.4,11-14.7,19.7-26.3,20.1c-15.8,0.5-31.6,0.8-47.4,1
			c-24,0.4-47.9,0.8-71.9,0.8c-10.4,0-21-0.4-31.3-1.9c-16.8-2.5-28.9-20.8-26.5-37.5c1.6-11.3,7.4-19.3,16.3-25.6
			c6.7-4.8,14.6-4.8,22-4.9c37.7-0.3,75.3-0.4,113,0c11.4,0.1,23.1,0.6,34.1,3.1c9.5,2.2,18.8,13,19.1,23.1c0.1,2.1,0.9,4.1,1.4,6.2
			C904,460.3,904,461.7,904,463z"/>
		<path class="st0" d="M18,460c0.5-1.2,1.3-2.4,1.3-3.6c0-14.4,15.8-29.6,30.1-29.1c9.1,0.3,18.2-0.7,27.4-0.8
			c30.3-0.1,60.6-0.2,90.9,0.1c10.8,0.1,21.6,0.9,32.3,1.9c11.4,1.1,23.4,14.8,23.6,26.2c0.1,4.8,0.4,9.6,0,14.4
			c-1.2,12.8-14.7,25.2-27.7,25.6c-16.1,0.4-32.2,0.8-48.4,1c-23.8,0.4-47.6,0.8-71.3,0.8c-10.4,0-20.9-0.6-31.3-1.9
			C32,492.9,21,480.7,19.3,467.6c-0.2-1.2-0.9-2.4-1.3-3.6C18,462.7,18,461.3,18,460z"/>
		<path class="st0" d="M256.5,459.3c1.2-13,1.2-28,4.3-42.3c4.4-20.3,12.1-39.7,22.9-57.6c20.7-34.2,48.3-61.2,83.4-80.3
			c19.3-10.5,40.1-17.3,62-20.7c19.7-3.1,39.2-1.7,58.9-0.2c15.3,1.2,29.6,5.7,43.9,10.6c37.6,12.9,66.7,37.2,91.4,67.5
			c20,24.6,32.2,52.9,39.8,83.4c2,7.9,2.3,16.4,2.4,24.7c0.1,16.1,0.5,32.4-1.2,48.3c-1.4,12.2-5.5,24.2-9.2,36
			c-6.5,20.9-17.6,39.5-30.9,56.6c-18.4,23.5-40.8,42.8-67.1,57.2c-17.6,9.6-36.4,16.1-55.9,20.2c-8.5,1.8-17.4,2.4-26.1,2.6
			c-18.4,0.5-37,1-55.1-3c-11.1-2.5-22-6.4-32.7-10.3c-27.9-10.2-51.5-27-71.8-48.4c-8.9-9.4-16.9-19.6-24.7-29.9
			c-15.9-21-24.6-45.5-30.6-70.6C256.9,489.6,257.6,475.1,256.5,459.3z M595.5,462.1c0.3-71.8-58.6-135.2-132.8-135.3
			c-75.2-0.1-135.6,60-135.8,134.6c-0.2,75.1,62.9,132.7,131.7,134.2C533.5,597.3,596.6,533.2,595.5,462.1z"/>
		<path class="st0" d="M271,619.1c10.1-0.4,20.2,4.7,27.3,14.5c5.3,7.4,5.9,16.4,5,25.4c-0.8,7.2-4,13-9.3,18.2
			c-25.1,25-49.8,50.6-75,75.5c-9.4,9.3-19.8,17.7-29.9,26.3c-11.9,10.1-23.5,7.4-35.2-0.5c-9-6.1-15.4-14.8-16.2-26.2
			c-0.5-6.4-0.7-13.1,4.2-18.3c16.8-18,33.5-36.1,50.7-53.7c17.7-18.1,36.1-35.5,54.2-53.2C252.9,621.2,260.3,618.9,271,619.1z"/>
		<path class="st0" d="M654.8,618.6c8.8,0.1,15.9,3.2,22.1,9.3c24.8,24.6,49.9,49,74.6,73.7c9.6,9.7,18.3,20.2,27.4,30.3
			c6.8,7.6,7.6,16.4,5.2,25.9c-4.2,16.3-23.9,33.4-46,24.4c-6-2.4-11.1-7.7-16-12.4c-16.5-15.7-32.9-31.6-49-47.7
			c-15.9-15.9-31.4-32.2-47-48.2c-6.5-6.6-6.8-14.9-6.5-23.3c0.5-13.4,7.1-23.1,18.9-28.7C643.3,619.7,649.3,619.7,654.8,618.6z"/>
		<path class="st0" d="M244.9,293.2c-27-27.2-54.5-53.8-81.4-81c-7.9-8-14.7-17.1-21.9-25.8c-6.1-7.4-5.4-16.3-2.2-24
			c5.4-13.3,15.7-21.9,30.1-25.2c5.7-1.3,10.7,0.4,15,3.3c7.3,4.9,14.6,10,20.9,16.1c25.1,24.3,49.9,48.9,74.7,73.6
			c6.7,6.7,13.3,13.6,19,21.1c4.8,6.3,5.1,14.3,4.4,22c-1,10.4-5.1,19.7-14.6,24.6c-6.3,3.3-13.6,4.4-20.5,6.5
			C268.2,303.9,251.5,299.9,244.9,293.2z"/>
		<path class="st0" d="M619.4,269.6c0-9.7,2.6-18,9.9-25.1c22.5-22.3,44.4-45.1,66.8-67.4c11.2-11.1,23.2-21.5,34.9-32.1
			c10.2-9.2,21.7-10,33.6-3.6c12.9,7,21.3,17.6,20.6,32.7c-0.3,5.8-3.5,12.3-7.4,16.8c-13.9,15.9-28.3,31.4-43.2,46.4
			c-19.6,19.9-39.7,39.4-59.8,58.9c-8.5,8.2-19.2,7.8-30,6.2C629.2,300,619.4,285.9,619.4,269.6z"/>
		<path class="st0" d="M495.6,120.9c0,19.3,0.1,38.6,0,58c0,6.6-0.4,13.3-1,19.9c-1.1,11.9-15.4,24.9-27.5,24.7
			c-6.7-0.1-14.1,0.2-20-2.3c-13.1-5.5-19.5-16.3-19.5-30.8c-0.3-45.3-0.5-90.6-1-135.8c-0.2-14,6.3-24.2,17.2-31.7
			c16.6-11.5,45.8-0.2,50.4,19.3c1.1,4.8,1.4,9.9,1.5,14.8C495.6,78.3,495.6,99.6,495.6,120.9z"/>
		<path class="st0" d="M495.6,801c0,20.2,0.1,40.3,0,60.5c0,5.6-0.5,11.3-1,16.9c-1,10.6-15.4,25.5-27.3,24.3
			c-6.7-0.7-14.1,0.4-20.1-2c-13.5-5.2-19.5-16.4-19.6-30.7c-0.4-46.1-0.5-92.3-1.1-138.4c-0.2-15.2,16.5-35.4,35.6-33.5
			c12.1,1.2,21.1,5.4,28.3,15c5.3,7,4.9,15.1,5.1,22.9C495.9,757.7,495.6,779.3,495.6,801z"/>
	</g>
</g>
</svg>
