<?xml version="1.0" encoding="utf-8"?>
<!-- Generator: Adobe Illustrator 21.1.0, SVG Export Plug-In . SVG Version: 6.00 Build 0)  -->
<svg version="1.1" xmlns="http://www.w3.org/2000/svg" xmlns:xlink="http://www.w3.org/1999/xlink" x="0px" y="0px"
	 viewBox="0 0 920 920" style="enable-background:new 0 0 920 920;" xml:space="preserve">
<style type="text/css">
	.st0{fill:#8E8E8E;}
</style>
<g id="Фон_xA0_Изображение_1_">
</g>
<g id="Слой_2_xA0_Изображение_1_">
	<g>
		<path class="st0" d="M463,902c-0.3,0-0.7,0-1,0c-2.7-0.6-5.4-1.2-8-1.9c-17.4-4.6-27.8-17.8-27.9-36.1c-0.2-20,0-40-0.1-59.9
			c0-2.2-0.4-4.4-0.7-7.2c-2.3,1.2-3.8,1.9-5.2,2.7c-14.6,8.4-29.1,16.8-43.7,25.2c-8.7,5-18,6.9-27.7,4.1
			c-16.7-4.8-26.3-15.9-27.6-33.3c-1.2-15,5.2-26.7,18-34.2c27.1-16,54.4-31.6,81.7-47.2c3.9-2.2,5.4-4.7,5.4-9
			c-0.1-57.8-0.1-115.7-0.1-173.5c0-1.8-0.5-3.7-0.8-6c-2,1-3.2,1.5-4.3,2.2c-50.5,29.1-100.9,58.3-151.4,87.3c-3.7,2.1-5,4.5-5,8.6
			c0.2,31,0.2,62,0.1,93c-0.1,26-22.9,43.7-46.9,36.9c-15.9-4.5-27.1-19.3-27.2-36.1c-0.1-16.7,0-33.3,0-50c0-1.8,0-3.5,0-6.2
			c-2.8,1.4-4.7,2.2-6.5,3.3c-17.6,10.1-35,20.7-52.9,30.3c-5.8,3.1-12.9,5.1-19.5,5.2c-17.7,0.1-31.8-11.2-35.6-28.5
			c-3.2-14.9,2.3-31,17.4-39.8c18.7-10.9,37.5-21.7,56.2-32.5c1.1-0.6,2-1.5,3.6-2.6c-2.3-1.5-4-2.8-5.9-3.8
			c-15.1-8.8-30.5-17.1-45.3-26.5c-17.5-11.2-21.6-33.1-10.3-50.9c10.2-16.1,32.9-20.9,50-10.9c27,15.7,54.2,31.2,81.3,47
			c3.5,2.1,6.1,2,9.5,0c49.5-28.8,99.1-57.4,148.6-86.1c1.5-0.8,2.7-2,4.7-3.5c-12.2-7-23.5-13.6-34.9-20.2
			c-40.4-23.3-80.8-46.5-121-70c-3.9-2.2-6.6-1.5-10,0.5c-26.8,15.6-53.5,31.2-80.5,46.4c-10.5,6-21.8,5.8-32.7,0.8
			c-13.1-6-20.3-16.9-21.2-31c-0.9-15.2,5.9-27.1,19.2-34.8c13.2-7.7,26.6-15.2,39.8-22.9c1.9-1.1,3.7-2.4,6.3-4.2
			c-2.3-1.4-3.8-2.4-5.3-3.3c-17.3-10-34.8-19.7-51.8-30.2c-18.2-11.3-22.7-33-11.4-51.5c10-16.3,32.3-21.3,49.8-11.3
			c11.2,6.5,22.5,13,33.8,19.4c7.7,4.4,15.5,8.8,24.3,13.9c0-3.1,0-4.8,0-6.6c0-16.3-0.1-32.7,0-49c0-3.5,0.3-7,0.9-10.4
			c2.8-14.5,11-24.7,25.2-28.9c13.7-4,26.4-1.4,36.9,8.8c8.1,7.8,11,17.6,11.1,28.5c0.1,31.7,0.1,63.3-0.1,95c0,4,1.1,6.4,4.7,8.3
			c9.2,5,18.3,10.3,27.4,15.5c41,23.6,81.9,47.3,122.9,70.9c1.8,1,3.6,1.9,6.2,3.2c0.1-2.7,0.3-4.5,0.3-6.3c0-16.3,0-32.7,0-49
			c0-42,0-84,0.1-126c0-4.6-1.1-7.5-5.5-10c-26.2-14.8-52.2-30.2-78.4-45.1c-13.4-7.6-21.7-18.5-21.5-34
			c0.3-28.8,30.6-45.7,55.6-31.4c15,8.6,30,17.3,45,25.9c1.2,0.7,2.6,1,4.8,1.8c0-3.1,0-5.2,0-7.3c0.1-20.7-0.2-41.3,0.4-62
			c0.4-16.1,13.3-30.2,29-33.2c2.2-0.4,4.4-1,6.6-1.5c0.3,0,0.7,0,1,0c1,0.4,2,1.2,3.1,1.2c19.8,1.4,33.9,19.3,33.5,38
			c-0.3,19.5-0.1,39-0.1,58.5c0,1.8,0,3.6,0,6.4c2.7-1.3,4.6-2.1,6.4-3.1c15.3-8.8,30.5-17.8,46-26.3c17-9.3,40.3-1.3,48.6,16.2
			c9.2,19.4,3.1,38.8-16.2,50c-26.6,15.5-53.3,30.9-80.1,46.1c-3.5,2-4.8,4.2-4.8,8.2c0.1,58,0.1,116,0.1,174c0,1.7,0.2,3.5,0.3,6
			c2.7-1.3,4.7-2,6.5-3.1c49.7-28.7,99.4-57.5,149.2-86c4.3-2.4,5.6-5.2,5.5-9.9c-0.2-31.5-0.2-63,0-94.5c0.1-20,16.1-35,36.3-35.5
			c20-0.6,37.2,17.4,36.7,35.1c-0.5,17.3-0.1,34.7,0,52c0,2,0.5,4,0.8,6.8c2.6-1.4,4.3-2.3,6-3.3c17-9.8,33.8-20.1,51.1-29.3
			c23.6-12.6,53.2,1.9,54.4,31.4c0.6,14.4-6.3,25.7-18.8,33.1c-16.6,9.8-33.4,19.4-50.1,29.1c-1.6,0.9-3.1,2.1-5.4,3.7
			c3.5,2,6,3.6,8.6,5.1c13.8,8,27.8,15.8,41.5,24c13.4,8.1,20.3,24.1,17.2,38.6c-5.2,24.8-33.2,37.3-55.2,24.6
			c-27.2-15.7-54.5-31.4-81.7-47.3c-3.5-2-6.1-2-9.6,0.1c-14.9,8.8-29.9,17.4-44.9,26c-36.2,20.9-72.4,41.8-108.6,62.7
			c-1.3,0.8-2.5,1.8-4.3,3.1c1.9,1.3,3.1,2.3,4.3,3c50.6,29.3,101.2,58.5,151.7,87.8c3.1,1.8,5.5,1.8,8.7,0
			c27.9-16.3,55.8-32.5,83.9-48.4c4.8-2.7,10.5-4.7,15.9-5.2c18.2-1.7,33.3,8.4,38.6,25.8c4.8,15.6-0.9,32.9-16.6,42.2
			c-13.7,8.2-27.6,16.1-41.4,24.1c-3.2,1.9-6.4,3.8-10.4,6.2c2.4,1.6,3.8,2.7,5.3,3.5c18.3,10.6,36.6,21.1,54.8,31.9
			c13.7,8.1,20.8,25.4,16.8,40c-6.8,24.9-32.8,35.6-55.5,22.7c-17.2-9.8-34.3-19.8-51.5-29.7c-1.4-0.8-2.8-1.4-5.3-2.7
			c0,3,0,4.9,0,6.8c-0.2,17.5,0.2,35-0.8,52.4c-1.2,20.9-23.5,36-43.9,31.3c-17-3.9-29.2-20.2-28.9-36.5c0.6-30.3,0.1-60.7,0.3-91
			c0-4.4-1.4-6.8-5.3-9c-16.4-9.1-32.7-18.6-49-28.1c-34-19.7-68-39.4-102-59.1c-1.5-0.8-3.1-1.4-5.4-2.4c0,3,0,5,0,6.9
			c0,54.3,0.2,108.7-0.2,163c-0.1,9.4,1.5,16.1,11,19.2c1.9,0.6,3.4,2,5.2,3c23.1,13.3,46.1,26.6,69.2,40
			c14.4,8.4,22.2,24.1,19.7,38.4c-4.7,26.4-33.3,39.3-55.5,26.1c-14.3-8.5-28.8-16.7-43.2-25c-1.7-0.9-3.4-1.6-6-2.9
			c0,2.7,0,4.5,0,6.3c0,20.3,0.1,40.7,0,61c-0.1,18.9-14.2,34.5-32.9,36.6C465.4,900.9,464.2,901.6,463,902z"/>
	</g>
</g>
</svg>
